<svg width="36" height="36" viewBox="0 0 36 36" fill="none" xmlns="http://www.w3.org/2000/svg">
<rect width="36" height="36" rx="18" fill="white"/>
<path d="M18.83 8.18001C18.5695 8.06115 18.2864 7.99965 18 7.99965C17.7136 7.99965 17.4306 8.06115 17.17 8.18001L8.60003 12.08C8.42257 12.1583 8.2717 12.2864 8.16579 12.4489C8.05987 12.6113 8.00348 12.8011 8.00348 12.995C8.00348 13.1889 8.05987 13.3787 8.16579 13.5412C8.2717 13.7036 8.42257 13.8318 8.60003 13.91L17.18 17.82C17.4406 17.9389 17.7236 18.0004 18.01 18.0004C18.2964 18.0004 18.5795 17.9389 18.84 17.82L27.42 13.92C27.5975 13.8418 27.7483 13.7136 27.8543 13.5511C27.9602 13.3887 28.0166 13.1989 28.0166 13.005C28.0166 12.8111 27.9602 12.6213 27.8543 12.4589C27.7483 12.2964 27.5975 12.1683 27.42 12.09L18.83 8.18001Z" stroke="black" stroke-width="2" stroke-linecap="round" stroke-linejoin="round"/>
<path d="M8 18C7.99953 18.1913 8.05392 18.3787 8.15672 18.5399C8.25952 18.7012 8.40642 18.8297 8.58 18.91L17.18 22.82C17.4392 22.9374 17.7205 22.9981 18.005 22.9981C18.2895 22.9981 18.5708 22.9374 18.83 22.82L27.41 18.92C27.587 18.8404 27.737 18.7111 27.8418 18.5477C27.9466 18.3844 28.0015 18.1941 28 18" stroke="black" stroke-width="2" stroke-linecap="round" stroke-linejoin="round"/>
<path d="M8 23C7.99953 23.1913 8.05392 23.3787 8.15672 23.5399C8.25952 23.7012 8.40642 23.8297 8.58 23.91L17.18 27.82C17.4392 27.9374 17.7205 27.9981 18.005 27.9981C18.2895 27.9981 18.5708 27.9374 18.83 27.82L27.41 23.92C27.587 23.8404 27.737 23.7111 27.8418 23.5477C27.9466 23.3844 28.0015 23.1941 28 23" stroke="black" stroke-width="2" stroke-linecap="round" stroke-linejoin="round"/>
</svg>
